<?xml version="1.0" encoding="utf-8"?>
<!-- Generator: Adobe Illustrator 24.2.3, SVG Export Plug-In . SVG Version: 6.00 Build 0)  -->
<svg version="1.1" id="Layer_1" xmlns="http://www.w3.org/2000/svg" xmlns:xlink="http://www.w3.org/1999/xlink" x="0px" y="0px"
	 viewBox="0 0 128 128" style="enable-background:new 0 0 128 128;" xml:space="preserve">
<style type="text/css">
	.st0{fill:#12C6FF;}
	.st1{fill:#595959;stroke:#595959;stroke-width:0.25;stroke-miterlimit:10;}
	.st2{fill:#FFFFFF;stroke:#FFFFFF;stroke-width:6;stroke-miterlimit:10;}
	.st3{fill:#494749;}
	.st4{fill:#494749;stroke:#272727;stroke-width:3;stroke-miterlimit:10;}
	.st5{fill:#12C6FF;stroke:#272527;stroke-miterlimit:10;}
</style>
<ellipse class="st0" cx="45.4" cy="83" rx="34.3" ry="34.7"/>
<path class="st1" d="M55.7,66.5L55.7,66.5 M55.7,66.5c-0.6,1.7-1.5,3.8-2.1,5.3c0.8,0.5,1.6,0.9,2.3,1.4c1.1,0.7,2,1.6,2.7,2.7
	c1.7,2.7,0.1,8.1-4,8.5c-0.1,0-0.1,0.1-0.3,0.1c0.6,0.6,1.2,1.1,1.7,1.7c1,1.3,1.4,2.8,1,4.4c-0.4,1.7-1.1,3.2-2.3,4.4
	c-1.5,1.6-3.5,2.1-5.6,1.9c-1.6-0.2-3.2-0.6-4.8-1c-0.1,0-0.2-0.1-0.3,0c-0.6,1.6-1.4,3.5-2.1,5.3l-3.2-1.2c0.6-1.6,1.4-3.6,2.1-5.2
	c-0.8-0.3-1.6-0.7-2.5-1c-0.6,1.6-1.4,3.6-2.1,5.3L33,97.9c0.6-1.7,1.4-3.7,2.1-5.4c-2.1-0.9-4.2-1.7-6.3-2.6
	c0.7-1.2,1.4-2.3,2.1-3.5c0.7,0.3,1.4,0.5,2.1,0.8l0,0c0.9,0.4,1.5,0.1,1.9-0.8c1.8-4.5,3.6-9,5.4-13.5c0.4-1.1,0.1-1.9-1-2.4
	c-0.4-0.2-0.8-0.4-1.2-0.5s-0.8-0.3-1.3-0.5c0.4-1.1,0.8-2.2,1.3-3.4c2.2,0.8,4.2,1.7,6.4,2.5c0.6-1.5,1.4-3.5,2.1-5.2l3.2,1.2
	c-0.6,1.6-1.4,3.6-2,5.1c0.8,0.3,1.6,0.6,2.5,1c0.6-1.5,1.4-3.5,2-5.1L55.7,66.5 M45.7,80.2c1.3,0.5,2.6,0.9,4,0.9
	c1.4,0.1,2.5-0.6,3-1.7s0.3-2.3-0.7-3.3c-1.1-1.1-2.4-1.7-3.8-2.2c-0.5-0.2-1.1-0.4-1.6-0.6c-0.8,2.2-1.7,4.2-2.5,6.3
	C44.6,79.7,45.2,80,45.7,80.2 M43,82.7c-0.1,0-0.1,0-0.2-0.1c-0.9,2.3-1.8,4.6-2.7,6.9c0.5,0.2,1,0.4,1.5,0.6c0.1,0,0.1,0,0.1,0
	c1.8,0.7,3.7,1.4,5.7,1.3c1.4-0.1,2.4-0.6,2.9-2s0.2-2.5-0.8-3.5c-1.4-1.4-3.1-2.1-4.8-2.8C44.1,83.2,43.5,83,43,82.7 M56.5,64.4
	L56.5,64.4l-3.2-1.2c-0.5-0.2-1-0.2-1.4-0.1c-0.3-0.4-0.6-0.7-1.1-0.9L47.7,61c-1.2-0.4-2.5,0.1-2.9,1.3l-0.9,2.3
	c-0.1,0.3-0.2,0.6-0.3,0.8l-1-0.4l-3.2-1.3l0,0c-1.2-0.4-2.5,0.1-2.9,1.3L35,68.4c-0.4,1.2,0.1,2.5,1.2,2.9l0.4,0.2
	c0.3,0.1,0.5,0.2,0.8,0.3l0.3,0.1c0.2,0.1,0.4,0.1,0.5,0.2c-1.6,4.1-3.3,8.3-4.9,12.4l-0.7-0.3L32,84l0,0c-1-0.4-2.2,0-2.7,1l-1.2,2
	l-0.9,1.5c-0.3,0.6-0.4,1.2-0.2,1.9c0.2,0.6,0.7,1.1,1.3,1.3l2.4,1l1.8,0.7l-0.3,0.8l-1,2.5c-0.2,0.6-0.2,1.2,0.1,1.7
	c0.3,0.6,0.7,1,1.2,1.2l3.2,1.2c0.5,0.2,1,0.2,1.4,0.1c0.3,0.4,0.6,0.7,1.1,0.9l3.2,1.2c1.2,0.4,2.5-0.1,2.9-1.3l0.9-2.4
	c0.1-0.3,0.3-0.7,0.4-1c1.1,0.2,2.2,0.5,3.4,0.7c3,0.3,5.5-0.5,7.4-2.5c1.4-1.5,2.4-3.3,2.9-5.5c0.5-2.1,0.1-4-1-5.7
	c1-0.8,1.8-1.8,2.4-3c1.2-2.6,1.2-5.5-0.2-7.6c-0.8-1.3-2-2.4-3.4-3.3c-0.3-0.2-0.5-0.3-0.8-0.5c0.1-0.4,0.3-0.8,0.5-1.2l0.8-2.2
	c0-0.1,0-0.1,0-0.1C58.3,66.1,57.7,64.8,56.5,64.4L56.5,64.4z M54.9,68.6L54.9,68.6L54.9,68.6L54.9,68.6z M38.4,71.7L38.4,71.7
	L38.4,71.7L38.4,71.7z M47,78.2l0.8-2.2c1.1,0.4,1.9,0.9,2.6,1.5c0.4,0.4,0.3,0.6,0.2,0.8c-0.1,0.2-0.2,0.5-0.8,0.4
	C49,78.8,48.1,78.6,47,78.2L47,78.2z M43,88.4l1.1-2.8c1.6,0.6,2.9,1.2,3.8,2.2c0.4,0.5,0.4,0.7,0.3,1c-0.1,0.3-0.2,0.5-0.9,0.5
	C45.9,89.4,44.5,88.9,43,88.4L43,88.4z M16.7,103.7L16.7,103.7L16.7,103.7z"/>
<path class="st2" d="M188.8,76.7c-0.7-1.4-2-2.6-3.5-3.1c-0.2-0.1-0.4-0.1-0.5-0.3c-0.3-0.3-0.1-0.8,0.1-1.1c0.6-1,1.4-2.1,2.5-2.1
	c0.6,0,1.1,0.3,1.6,0.6c1.2,0.7,2.6,1.1,4,1.2c0.2,0,0.4,0,0.6-0.1c0.2-0.1,0.3-0.3,0.3-0.4c0.7-1.3,1.2-2.6,1.6-4
	c0.1-0.2,0.1-0.5,0.3-0.6c0.4-0.5,1.3-0.3,1.9-0.1c0.6,0.2,1.1,0.4,1.7,0.6c0.3,0.1,0.6,0.2,0.7,0.5c0.2,0.3,0,0.8-0.2,1.1
	c-0.6,1.2-1.2,2.3-1.8,3.5c-0.1,0.2-0.2,0.5-0.2,0.7c0,0.9,1.1,1.3,2,1.3l2.3-6c1.5,0.6,3,1.5,4.5,2l0.5,0.2l-2.3,5.9
	c0.6,0.2,1.2,0.7,1.8,1c2.7,1.6,4.7,4.6,4.6,7.7c-0.1,3.1-2.5,6.2-5.6,6.6c1.7,1.3,2.6,3.4,2.6,5.5c0.1,2.1-0.7,4.2-1.8,5.9
	c-0.9,1.4-2,2.6-3.5,3.2c-0.8,0.3-1.7,0.4-2.6,0.4c-2.1,0.2-4.3,0.3-6.1-0.7c-0.5-0.3-1.2-0.6-1.6-0.2c-0.3,0.2-0.3,0.6-0.3,1
	c0,1.5-0.3,2.9-0.9,4.2c-0.2,0.4-0.4,0.8-0.8,0.9c-0.3,0.1-0.6,0-0.8-0.1c-0.5-0.2-1.1-0.4-1.6-0.6c-0.9-0.3-1.9-0.8-2.1-1.7
	c-0.2-0.6,0-1.3,0.2-1.9c0.4-1.2,0.8-2.4,1.2-3.6c-0.3-0.7-1.4-0.6-1.9,0s-0.5,1.4-0.6,2.2c-0.1,0.8-0.2,1.6-0.7,2.1
	c-0.8,0.7-2,0.4-2.9-0.1c-0.9-0.5-1.7-1.3-2.7-1.6c-0.1-2,0.7-4,2-5.6c-1.3-0.7-2.7-1.2-4.1-1.6c-0.7-0.2-1.5-0.4-2-1
	c-1-1.1-0.4-2.8,0.3-4c0.4-0.7,0.9-1.4,1.5-2.1c0.1-0.2,0.3-0.3,0.5-0.4c0.2,0,0.3,0,0.5,0.1c1,0.4,2.2,0.6,3.2,1.1l6.9-18"/>
<path class="st3" d="M45.1,49.5c18.4,0,33.3,15,33.3,33.3s-15,33.3-33.3,33.3s-33.3-15-33.3-33.3S26.7,49.5,45.1,49.5 M45.1,46.7
	c-19.9,0-36.2,16.2-36.2,36.1s16.2,36.1,36.1,36.1s36.2-16.2,36.2-36.1S65,46.7,45.1,46.7L45.1,46.7z"/>
<circle class="st4" cx="85.7" cy="45.9" r="35.2"/>
<g>
	<path class="st5" d="M85.7,49.8c-6.5-6.5-13-13-19.5-19.5c0,8.4,0,16.7,0,25.1c-0.2,0-0.4,0-0.5,0c-2.6,0-5.3,0-7.9,0
		c-0.4,0-0.5-0.1-0.7-0.5c-1.1-3.6-1.5-7.3-1.3-11.1c0.5-6.4,2.7-12.1,6.7-17c4.5-5.5,10.3-9,17.3-10.3c9.3-1.8,17.7,0.3,25.1,6.4
		c5.5,4.6,9,10.6,10.2,17.7c0.9,4.8,0.5,9.6-0.9,14.2c-0.1,0.4-0.3,0.5-0.7,0.5c-2.6,0-5.3,0-7.9,0c-0.1,0-0.3,0-0.5,0
		c0-8.4,0-16.7,0-25.1C98.6,36.9,92.2,43.3,85.7,49.8z"/>
	<path class="st5" d="M60.1,61.5c4.2,0,8.3,0,12.5,0c0-5.3,0-10.5,0-15.8c4.4,4.4,8.6,8.6,13,12.9c4.4-4.3,8.6-8.6,13-12.9
		c0,5.3,0,10.5,0,15.8c4.2,0,8.4,0,12.7,0c-2.5,4-5.6,7.2-9.4,9.7s-8,4-12.6,4.5C75.4,77.3,64.7,69.5,60.1,61.5z"/>
</g>
<g id="nd5j8T.tif">
	
		<image style="overflow:visible;" width="58" height="49" id="Layer_0_1_" xlink:href="D03724B37CD18799.png"  transform="matrix(1 0 0 1 190.5014 75.4182)">
	</image>
</g>
</svg>
